<?xml version="1.0" encoding="utf-8"?>
<!-- Svg Vector Icons : http://www.onlinewebfonts.com/icon -->
<!DOCTYPE svg PUBLIC "-//W3C//DTD SVG 1.1//EN" "http://www.w3.org/Graphics/SVG/1.1/DTD/svg11.dtd">
<svg version="1.1" xmlns="http://www.w3.org/2000/svg" xmlns:xlink="http://www.w3.org/1999/xlink" x="0px" y="0px" viewBox="0 0 1000 1000" enable-background="new 0 0 1000 1000" xml:space="preserve">
<metadata> Svg Vector Icons : http://www.onlinewebfonts.com/icon </metadata>
<g><g transform="translate(0.000000,499.000000) scale(0.100000,-0.100000)"><path d="M4732.5,4820l-67.5-67.5v-756.2v-756.2l65.5-71.5c53.6-59.5,81.4-73.4,144.9-75.4c101.2-2,180.6,49.6,218.3,136.9c39.7,97.3,41.7,1429,0,1524.3c-35.7,85.4-111.1,133-212.4,133C4815.8,4887.4,4788,4875.5,4732.5,4820z"/><path d="M1497.3,3599.3c-77.4-33.7-127-119.1-127-216.3v-91.3l520-522c285.8-285.8,543.8-529.9,575.6-543.8c160.8-65.5,349.3,103.2,293.7,267.9c-11.9,39.7-206.4,248.1-541.8,583.5c-482.3,482.3-529.9,524-601.4,531.9C1574.7,3613.2,1519.1,3609.2,1497.3,3599.3z"/><path d="M8078.8,3585.4c-81.4-53.6-1012.2-986.4-1044-1044c-79.4-150.8,31.7-333.4,206.4-333.4c31.8,0,91.3,25.8,135,57.6c91.3,67.5,960.6,942.8,1008.3,1014.2C8505.5,3464.4,8263.4,3706.5,8078.8,3585.4z"/><path d="M4714.6,2841.1c-349.3-35.7-639.1-117.1-962.6-269.9c-337.4-156.8-605.4-353.3-877.3-637.1c-391-412.8-666.9-964.6-760.2-1518.4c-41.7-250.1-41.7-698.6-2-946.7c111.2-682.8,468.4-1319.9,982.5-1752.6c400.9-337.4,857.4-557.7,1381.4-662.9c267.9-51.6,823.7-47.6,1093.6,9.9c526,113.1,986.4,341.4,1373.5,680.8c492.2,432.7,831.6,1046,946.7,1714.9c35.7,208.4,41.7,664.9,9.9,881.2c-91.3,637.1-369.2,1186.9-831.6,1649.4c-510.1,510.1-1081.7,778-1806.1,851.5C5034.1,2865,4944.8,2865,4714.6,2841.1z M5562.1,2122.7c603.4-158.8,1103.5-539.9,1407.2-1071.8c180.6-317.6,271.9-631.2,289.8-1008.3c31.7-664.9-204.4-1262.3-682.8-1732.7c-424.7-414.8-968.6-633.1-1573.9-633.1c-605.4,0-1147.2,216.3-1573.9,633.1c-795.9,776.1-917,1978.8-291.8,2907.7c125,184.6,420.8,472.4,617.3,601.4c266,170.7,480.3,260,807.8,331.5C4819.8,2206,5296.1,2192.1,5562.1,2122.7z"/><path d="M201.2,235.1C137.7,199.4,102,129.9,100,38.6c0-61.5,13.9-91.3,67.5-144.9l67.5-67.5h764.1c734.4,0,764.1,2,813.8,39.7c111.1,87.3,111.1,269.9,0,357.3c-49.6,37.7-79.4,39.7-807.8,39.7C415.6,260.9,238.9,255,201.2,235.1z"/><path d="M8166.1,195.4c-55.6-55.6-67.5-83.4-67.5-150.8c0-67.5,11.9-95.3,67.5-150.8l67.5-67.5h764.1c728.4,0,764.1,2,811.8,39.7c115.1,89.3,121.1,256,13.9,345.3l-61.5,51.6h-764.1h-764.1L8166.1,195.4z"/><path d="M2481.7-2251.8c-31.8-6-232.2-190.5-579.6-539.9l-531.9-529.9v-101.3c0-87.3,7.9-111.1,61.5-162.8c69.5-69.5,178.6-83.3,271.9-33.7c29.8,15.9,277.9,254,551.8,531.9c529.9,533.9,543.8,551.8,498.2,688.7C2717.9-2293.5,2604.8-2232,2481.7-2251.8z"/><path d="M7398-2257.8c-77.4-23.8-115.1-57.6-146.9-137c-55.6-129-37.7-154.8,498.2-692.7c273.9-277.9,522-516.1,551.8-531.9c111.1-57.6,264-17.9,309.6,81.4c31.8,69.5,29.8,158.8-4,224.3c-31.7,59.5-946.7,970.6-1024.1,1020.2C7513.1-2247.8,7461.5-2239.9,7398-2257.8z"/><path d="M4911.1-3129.1c-23.8-9.9-61.5-43.7-85.3-73.4c-41.7-51.6-41.7-67.5-41.7-813.8v-762.1l57.6-63.5c51.6-57.6,69.5-65.5,160.8-65.5c91.3,0,109.2,7.9,160.8,65.5l57.6,63.5v764.1v764.1l-53.6,59.5C5107.6-3123.1,4990.5-3095.3,4911.1-3129.1z"/></g></g>
</svg>