<?xml version="1.0" encoding="utf-8"?>
<!-- Svg Vector Icons : http://www.onlinewebfonts.com/icon -->
<!DOCTYPE svg PUBLIC "-//W3C//DTD SVG 1.1//EN" "http://www.w3.org/Graphics/SVG/1.1/DTD/svg11.dtd">
<svg version="1.1" xmlns="http://www.w3.org/2000/svg" xmlns:xlink="http://www.w3.org/1999/xlink" x="0px" y="0px" viewBox="0 0 1000 1000" enable-background="new 0 0 1000 1000" xml:space="preserve">
<metadata> Svg Vector Icons : http://www.onlinewebfonts.com/icon </metadata>
<g><path d="M809.5,818.9c-132.8,0-554.5,0-554.5,0v-0.3c-78.9-3.4-141.8-67.5-141.8-146.4c0-74.5,56.2-136,129-145.3c0-0.5-0.1-0.9-0.1-1.4c0-162,132.8-293.4,296.6-293.4c141.9,0,260,98.8,289.1,230.5c91.1,9.1,162.2,85.2,162.2,177.7C990,739,909.2,818.9,809.5,818.9z M809.5,487.2c-37.2,0-71.2,13.2-97.9,34.9l-19-17.7c29.6-24.9,67.5-40.5,108.9-42.3c-28.8-117.3-135.3-204.5-262.8-204.5c-149.6,0-270.8,119.9-270.8,267.9c0,27.6,2.1,25.5-6.4,25.5c-67.7,0-122.5,54.3-122.5,121.2c0,66.9,54.8,121.2,122.5,121.2c105.4,0,334.9,0,548,0c85.5,0,154.7-68.5,154.7-153.1C964.2,555.8,894.9,487.2,809.5,487.2z M306.6,206.6c-92.6,0-167.6,74.2-167.6,165.8c0,1.2,0.2,2.3,0.2,3.4c4.4,1.1,8.5,2.7,12.7,4.4v28.3c-11.4-6.6-24.5-10.6-38.7-10.6c-42.7,0-77.4,34.3-77.4,76.5c0,42.3,34.6,76.5,77.4,76.5c4.4,0,8.7-0.5,12.9-1.3v25.9c-4.2,0.5-8.5,0.9-12.9,0.9c-57,0-103.2-45.7-103.2-102.1c0-56.4,46.2-102.1,103.2-102.1c0-105.7,86.6-191.3,193.4-191.3c41.1,0,79.1,12.8,110.4,34.4l-16.9,19.3C373.4,217,341.2,206.6,306.6,206.6z"/></g>
</svg>