<?xml version="1.0" encoding="utf-8"?>
<!-- Svg Vector Icons : http://www.onlinewebfonts.com/icon -->
<!DOCTYPE svg PUBLIC "-//W3C//DTD SVG 1.1//EN" "http://www.w3.org/Graphics/SVG/1.1/DTD/svg11.dtd">
<svg version="1.1" xmlns="http://www.w3.org/2000/svg" xmlns:xlink="http://www.w3.org/1999/xlink" x="0px" y="0px" viewBox="0 0 1000 1000" enable-background="new 0 0 1000 1000" xml:space="preserve">
<metadata> Svg Vector Icons : http://www.onlinewebfonts.com/icon </metadata>
<g><g transform="translate(0.000000,511.000000) scale(0.100000,-0.100000)"><path d="M4654.2,4389c-431.5-66.4-720.1-155.8-1072.5-337.1c-454.5-234.9-852.9-597.5-1146.5-1044.4l-160.9-245.1l-217.1-46C596.6,2422.8-264,877.9,249.3-529.1c76.6-206.8,265.6-559.2,301.3-554.1c10.2,0,61.3,91.9,114.9,201.7c63.8,135.3,145.6,250.2,245.1,352.4l148.1,150.7l-61.3,189C744.7,561.2,1102.2,1421.8,1807,1771.6c260.5,127.7,495.4,181.3,809.5,181.3h232.4l17.9,84.3c33.2,150.7,222.2,497.9,380.5,699.7c835,1054.6,2400.3,1136.3,3347.7,176.2c416.2-421.3,651.2-995.9,651.2-1588.3v-189H7624c255.4,0,426.5-12.8,528.6-38.3c633.3-166,1047-822.3,906.5-1437.6c-25.5-107.3-23-112.4,91.9-252.8c145.5-178.8,257.9-398.3,301.3-589.9l33.2-145.6l104.7,163.4c247.7,380.5,360.1,919.3,288.6,1368.7c-145.5,891.2-806.9,1560.2-1695.6,1708.3l-181.3,30.6l-40.8,166c-278.3,1100.6-1174.6,1966.2-2298.2,2221.6C5450.9,4378.8,4827.8,4414.6,4654.2,4389z"/><path d="M1730.4-940.2c-125.1-40.8-339.6-260.5-377.9-390.7c-71.5-240-20.4-431.6,160.9-610.3c173.6-176.2,240-191.5,829.9-191.5s656.3,15.3,829.9,191.5c181.3,178.8,232.4,370.3,160.9,610.3c-40.8,140.4-252.8,352.4-393.2,393.2C2805.4-899.4,1858.1-899.4,1730.4-940.2z"/><path d="M4577.6-947.9c-140.4-51.1-309-224.7-357.5-365.2c-81.7-242.6-33.2-441.8,153.2-628.2c79.2-81.7,166-140.4,232.4-160.9c150.7-43.4,3495.8-43.4,3646.5,0c219.6,66.4,423.9,347.3,423.9,582.2c0,234.9-204.3,515.8-423.9,582.2c-79.2,23-549,30.6-1838.6,28.1C4958.1-909.6,4664.4-917.3,4577.6-947.9z"/><path d="M1730.4-2983.1c-48.5-15.3-148.1-86.8-217.1-158.3c-181.3-178.8-232.4-370.3-160.9-610.3c40.8-140.4,252.8-352.4,393.2-393.2c150.7-43.4,3495.8-43.4,3646.5,0c219.6,66.4,423.9,347.3,423.9,582.2s-204.3,515.8-423.9,582.2C5249.1-2939.7,1863.2-2942.2,1730.4-2983.1z"/><path d="M7041.8-2983.1c-125.1-40.9-339.6-260.5-377.9-390.7c-71.5-240-20.4-431.6,160.9-610.3c173.6-176.2,240-191.5,829.9-191.5c589.9,0,656.2,15.3,829.9,191.5c132.8,130.2,191.5,260.5,191.5,421.3c0,234.9-204.3,515.8-423.9,582.2C8116.8-2942.2,7169.5-2942.2,7041.8-2983.1z"/></g></g>
</svg>