<?xml version="1.0" encoding="utf-8"?>
<!-- Svg Vector Icons : http://www.onlinewebfonts.com/icon -->
<!DOCTYPE svg PUBLIC "-//W3C//DTD SVG 1.1//EN" "http://www.w3.org/Graphics/SVG/1.1/DTD/svg11.dtd">
<svg version="1.1" xmlns="http://www.w3.org/2000/svg" xmlns:xlink="http://www.w3.org/1999/xlink" x="0px" y="0px" viewBox="0 0 1000 1000" enable-background="new 0 0 1000 1000" xml:space="preserve">
<metadata> Svg Vector Icons : http://www.onlinewebfonts.com/icon </metadata>
<g><path d="M408.1,132.5c16.9,0,30.6-13.7,30.6-30.6V40.6c0-16.9-13.7-30.6-30.6-30.6s-30.6,13.7-30.6,30.6v61.3C377.5,118.8,391.2,132.5,408.1,132.5z M646.3,213.2l43.3-43.3c12-12,12-31.3,0-43.3c-12-12-31.3-12-43.3,0L603,169.9c-12,12-12,31.3,0,43.3C615,225.2,634.4,225.2,646.3,213.2z M40.6,438.8h61.3c16.9,0,30.6-13.7,30.6-30.6s-13.7-30.6-30.6-30.6H40.6c-16.9,0-30.6,13.7-30.6,30.6S23.7,438.8,40.6,438.8z M683.8,408.1c0,16.9,13.7,30.6,30.6,30.6h61.3c16.9,0,30.6-13.7,30.6-30.6s-13.7-30.6-30.6-30.6h-61.3C697.5,377.5,683.8,391.2,683.8,408.1z M169.9,213.2c12,12,31.4,12,43.3,0c12-12,12-31.3,0-43.3l-43.3-43.3c-12-12-31.3-12-43.3,0c-12,12-12,31.3,0,43.3L169.9,213.2z M775.6,500c-10.2,0-20.2,0.7-30.2,2.1c-32.1-43.8-74.9-77.2-123.4-98.6c-2.5-116-97.2-209.8-213.9-209.8c-118.2,0-214.4,96.2-214.4,214.4c0,33.4,8.3,64.6,22,92.7C101.6,505.5,10,599.2,10,714.4c0,118.2,96.2,214.4,214.4,214.4c26.2,0,51.8-4.8,76-14C355.8,963,426.3,990,500,990c73.8,0,144.2-27,199.6-75.3c24.2,9.2,49.8,14,76,14c118.2,0,214.4-96.2,214.4-214.4C990,596.2,893.8,500,775.6,500z M408.1,255c76.2,0,138.9,55.8,150.6,128.7c-19.2-3.8-38.8-6.2-58.8-6.2c-87.9,0-169.4,37.9-226.6,101.9C262,458,255,434,255,408.1C255,323.5,323.5,255,408.1,255z M775.6,867.5c-32.8,0-63-10.5-87.9-28.1c-44.9,54.2-111.8,89.3-187.7,89.3c-75.9,0-142.8-35.2-187.7-89.3c-24.9,17.5-55.2,28.1-87.9,28.1c-84.6,0-153.1-68.5-153.1-153.1s68.5-153.1,153.1-153.1c14.8,0,28.8,2.8,42.4,6.8c5.4,1.5,10.8,2.7,15.9,4.8c8.4-16.4,18.9-31.4,30.6-45.4c44.7-53.8,111.3-88.7,186.8-88.7c19.4,0,38,2.8,56,7.1c20.2,4.8,39.3,12,57.1,21.6c44.6,23.7,81.2,60.4,104.2,105.4c18-7.4,37.6-11.6,58.3-11.6c84.6,0,153.1,68.5,153.1,153.1S860.2,867.5,775.6,867.5z"/></g>
</svg>