<?xml version="1.0" encoding="utf-8"?>
<!-- Svg Vector Icons : http://www.onlinewebfonts.com/icon -->
<!DOCTYPE svg PUBLIC "-//W3C//DTD SVG 1.1//EN" "http://www.w3.org/Graphics/SVG/1.1/DTD/svg11.dtd">
<svg version="1.1" xmlns="http://www.w3.org/2000/svg" xmlns:xlink="http://www.w3.org/1999/xlink" x="0px" y="0px" viewBox="0 0 1000 1000" enable-background="new 0 0 1000 1000" xml:space="preserve">
<metadata> Svg Vector Icons : http://www.onlinewebfonts.com/icon </metadata>
<g><path d="M954.8,194.8C954.8,92.9,871.9,10,770,10C712.2,10,660,37.7,625.3,82.2c-38-23-82-36.5-128.5-36.5c-97.6,0-168,80-199.6,124.5c-16-4-32.3-6-48.7-6c-121.6,0-203.3,71.5-203.3,177.9c0,112.1,91.2,212.7,203.3,212.7l467.8-0.2l7.8,0.3c17.3,0.8,29.7,1.4,46.5,1.4c98.1,0,177.9-89.2,177.9-187.2c0-28.9-7.6-55.8-19.9-80C945.5,260.6,954.8,228.6,954.8,194.8z M770.6,496.8c-15.9,0-27.6-0.5-44-1.1l-424.5-0.4l-53.6,0.1c-79.3,0-143.8-73.9-143.8-153.2c0-87.4,77.4-118.4,143.8-118.4c17.1,0,34.1,3.2,50.7,9.3l22.9,8.6l12.8-20.8c34.7-55.9,95.5-115.6,161.9-115.6c84.4,0,159.6,56.6,183,137.6l9.6,33.3l31.4-14.6c15.8-7.4,32.6-11,49.8-11c65.3,0,118.4,53.1,118.4,118.5C889,434.3,835.9,496.8,770.6,496.8z M888.1,236.5c-31.4-27.9-72.3-45.4-117.5-45.4c-15,0-29.9,1.9-44.3,5.6c-12.9-29.9-31.8-56.1-54.4-78.3c23.6-30.2,59-48.9,98.1-48.9c69.1,0,125.3,56.2,125.3,125.3C895.3,209.3,892.7,223.3,888.1,236.5z M136.6,844.3l58.9,8.3l19.7-229.1l-59-8.3L136.6,844.3z M320.6,981.7l58.9,8.3l39.3-366.4l-58.9-8.3L320.6,981.7z M531.6,981.7l58.9,8.3l39.3-366.4l-59-8.3L531.6,981.7z M754.8,844.3l58.9,8.3l19.6-229.1l-58.9-8.3L754.8,844.3z"/><path d="M954.8,194.8C954.8,92.9,871.9,10,770,10C712.2,10,660,37.7,625.3,82.2c-38-23-82-36.5-128.5-36.5c-97.6,0-168,80-199.6,124.5c-16-4-32.3-6-48.7-6c-121.6,0-203.3,71.5-203.3,177.9c0,112.1,91.2,212.7,203.3,212.7l467.8-0.2l7.8,0.3c17.3,0.8,29.7,1.4,46.5,1.4c98.1,0,177.9-89.2,177.9-187.2c0-28.9-7.6-55.8-19.9-80C945.5,260.6,954.8,228.6,954.8,194.8z M770.6,496.8c-15.9,0-27.6-0.5-44-1.1l-424.5-0.4l-53.6,0.1c-79.3,0-143.8-73.9-143.8-153.2c0-87.4,77.4-118.4,143.8-118.4c17.1,0,34.1,3.2,50.7,9.3l22.9,8.6l12.8-20.8c34.7-55.9,95.5-115.6,161.9-115.6c84.4,0,159.6,56.6,183,137.6l9.6,33.3l31.4-14.6c15.8-7.4,32.6-11,49.8-11c65.3,0,118.4,53.1,118.4,118.5C889,434.3,835.9,496.8,770.6,496.8z M888.1,236.5c-31.4-27.9-72.3-45.4-117.5-45.4c-15,0-29.9,1.9-44.3,5.6c-12.9-29.9-31.8-56.1-54.4-78.3c23.6-30.2,59-48.9,98.1-48.9c69.1,0,125.3,56.2,125.3,125.3C895.3,209.3,892.7,223.3,888.1,236.5z M136.6,844.3l58.9,8.3l19.7-229.1l-59-8.3L136.6,844.3z M320.6,981.7l58.9,8.3l39.3-366.4l-58.9-8.3L320.6,981.7z M531.6,981.7l58.9,8.3l39.3-366.4l-59-8.3L531.6,981.7z M754.8,844.3l58.9,8.3l19.6-229.1l-58.9-8.3L754.8,844.3z"/></g>
</svg>