<?xml version="1.0" encoding="utf-8"?>
<!-- Svg Vector Icons : http://www.onlinewebfonts.com/icon -->
<!DOCTYPE svg PUBLIC "-//W3C//DTD SVG 1.1//EN" "http://www.w3.org/Graphics/SVG/1.1/DTD/svg11.dtd">
<svg version="1.1" xmlns="http://www.w3.org/2000/svg" xmlns:xlink="http://www.w3.org/1999/xlink" x="0px" y="0px" viewBox="0 0 1000 1000" enable-background="new 0 0 1000 1000" xml:space="preserve">
<metadata> Svg Vector Icons : http://www.onlinewebfonts.com/icon </metadata>
<g><path d="M829.1,174.4c-0.8-0.5-1.2-1.3-2.1-1.7c-2.5-1.4-5.2-2.6-7.9-4c-1.2-0.5-2.4-1.2-3.6-1.8c-32-16.1-66-26.1-100.8-29.7C662.3,58.5,572.8,10,477.9,10c-128,0-238.2,83.6-273.1,205.4c-2.9,0.8-5.7,2-8.5,3c-3.1,1.1-6.2,2.1-9.3,3.3c-48.1,18.8-88.2,51.1-116.6,91.9c-0.1,0.2-0.2,0.3-0.3,0.3c-4,5.7-7.6,11.5-11.2,17.5c-0.4,0.7-0.8,1.4-1.1,2.2c-3.2,5.5-6.1,11.1-8.8,16.9c-0.5,1-0.9,2-1.4,3c-2.6,5.7-4.9,11.5-7.1,17.3c-0.2,0.8-0.7,1.5-0.9,2.2c0,0.1,0,0.3-0.1,0.3c-9.7,27.3-15.2,56.5-15.2,86.9C24.2,601.9,139.4,717,280.9,717h404.3c160.3,0,290.6-130.4,290.6-290.7C975.8,318.9,917,224.6,829.1,174.4 M685.2,664H280.9c-112.3,0-203.6-91.4-203.6-203.7c0-33.9,8.6-66,23.5-94.4c0.9-1.9,1.8-3.8,2.8-5.6c4.3-7.7,9.3-15.1,14.7-22.3c1.5-1.9,2.9-3.9,4.4-5.8c5.5-6.7,11.4-13,17.7-19c1.8-1.7,3.7-3.5,5.7-5.3c6.5-5.8,13.5-11.2,20.9-16.1c1.8-1.2,3.7-2.5,5.5-3.6c8.2-5.1,16.7-9.8,25.6-13.7c1-0.4,2.1-0.9,3.1-1.3c10.2-4.3,20.6-8,31.6-10.6c0,0,0.1,0,0.2-0.1c24.7-6.1,50.8-7.8,77.2-3.9c14.3,2.1,27.9-7.9,30.1-22.4c2.1-14.5-7.9-28-22.4-30.1c-17.8-2.6-35.6-3.1-53-2C300.4,119.5,383.1,63,477.9,63C544,63,604.7,90.8,648,138.4c-14.1,1.9-28,4.4-42,8.4c-74.7,21.1-136.7,70.1-174.6,137.9c-7.1,12.8-2.6,28.9,10.3,36.1c4.1,2.3,8.4,3.4,12.9,3.4c9.3,0,18.3-4.9,23.2-13.6c31-55.4,81.6-95.4,142.8-112.7c25-7.1,50.4-9.7,75.5-8.6c0.7,0.1,1.4,0.4,2.2,0.4c125.9,6.9,224.6,110.8,224.6,236.8C922.8,557.4,816.2,664,685.2,664"/><path d="M477.4,763.6c-6.1-3.9-14.4-2.1-18.3,4.2L413,840.4c-3.9,6.2-2.1,14.4,4.1,18.4c2.2,1.4,4.7,2.1,7.1,2.1c4.4,0,8.7-2.2,11.2-6.2l46.1-72.7C485.5,775.7,483.6,767.5,477.4,763.6"/><path d="M431.2,892.8c-6.1-4-14.3-2.1-18.3,4.1l-46.1,72.8c-4,6.2-2.1,14.4,4.1,18.3c2.2,1.4,4.7,2.1,7.1,2.1c4.4,0,8.7-2.2,11.2-6.2l46.2-72.8C439.3,904.9,437.4,896.7,431.2,892.8"/><path d="M632.3,763.6c-6.1-3.9-14.4-2.1-18.3,4.2l-46.2,72.7c-3.9,6.2-2.1,14.4,4.1,18.4c2.2,1.4,4.7,2.1,7.1,2.1c4.4,0,8.7-2.2,11.2-6.2l46.1-72.7C640.4,775.7,638.5,767.5,632.3,763.6"/><path d="M589.2,892.8c-6.1-4-14.3-2.1-18.3,4.1l-46.1,72.8c-4,6.2-2.1,14.4,4.1,18.3c2.2,1.4,4.7,2.1,7.1,2.1c4.4,0,8.7-2.2,11.2-6.2l46.2-72.8C597.3,904.9,595.5,896.7,589.2,892.8"/><path d="M724.2,802.5c-3.9,0-7,3.2-7,7v3.2c0,3.9,3.2,7,7,7h17.9l-8.9,15.5c-1.9,3.4-0.8,7.7,2.6,9.6l2.8,1.6c3.4,1.9,7.7,0.8,9.6-2.6l8.9-15.5l8.9,15.5c1.9,3.3,6.3,4.5,9.6,2.6l2.8-1.6c3.4-1.9,4.5-6.3,2.6-9.6l-8.9-15.5h17.9c3.9,0,7-3.2,7-7v-3.2c0-3.9-3.2-7-7-7H772L781,787c1.9-3.4,0.8-7.7-2.6-9.6l-2.8-1.6c-3.4-1.9-7.7-0.8-9.6,2.6l-8.9,15.5l-8.9-15.5c-1.9-3.4-6.3-4.5-9.6-2.6l-2.8,1.6c-3.4,1.9-4.5,6.3-2.6,9.6l8.9,15.5H724.2z"/><path d="M684.3,931.7c-3.9,0-7,3.2-7,7v3.2c0,3.9,3.2,7,7,7h17.9l-8.9,15.5c-1.9,3.4-0.8,7.7,2.6,9.6l2.8,1.6c3.4,1.9,7.7,0.8,9.6-2.6l8.9-15.5l8.9,15.5c1.9,3.3,6.3,4.5,9.6,2.6l2.8-1.6c3.4-1.9,4.5-6.3,2.6-9.6l-8.9-15.5H750c3.9,0,7-3.2,7-7v-3.2c0-3.9-3.2-7-7-7h-17.9l8.9-15.5c1.9-3.4,0.8-7.7-2.6-9.6l-2.8-1.6c-3.4-1.9-7.7-0.8-9.6,2.6l-8.9,15.5l-8.9-15.5c-1.9-3.4-6.3-4.5-9.6-2.6l-2.8,1.6c-3.4,1.9-4.5,6.3-2.6,9.6l8.9,15.5H684.3z"/><path d="M259.5,802.5c-3.9,0-7,3.2-7,7v3.2c0,3.9,3.2,7,7,7h17.9l-8.9,15.5c-1.9,3.4-0.8,7.7,2.6,9.6l2.8,1.6c3.4,1.9,7.7,0.8,9.6-2.6l8.9-15.5l8.9,15.5c1.9,3.3,6.3,4.5,9.6,2.6l2.8-1.6c3.4-1.9,4.5-6.3,2.6-9.6l-8.9-15.5h17.9c3.9,0,7-3.2,7-7v-3.2c0-3.9-3.2-7-7-7h-17.9l8.9-15.5c1.9-3.4,0.8-7.7-2.6-9.6l-2.8-1.6c-3.4-1.9-7.7-0.8-9.6,2.6l-8.9,15.5l-8.9-15.5c-1.9-3.4-6.3-4.5-9.6-2.6l-2.8,1.6c-3.4,1.9-4.5,6.3-2.6,9.6l8.9,15.5H259.5z"/><path d="M210.1,931.7c-3.9,0-7,3.2-7,7v3.2c0,3.9,3.2,7,7,7H228l-8.9,15.5c-1.9,3.4-0.8,7.7,2.6,9.6l2.8,1.6c3.4,1.9,7.7,0.8,9.6-2.6l8.9-15.5l8.9,15.5c1.9,3.3,6.3,4.5,9.6,2.6l2.8-1.6c3.4-1.9,4.5-6.3,2.6-9.6l-8.9-15.5h17.9c3.9,0,7-3.2,7-7v-3.2c0-3.9-3.2-7-7-7h-17.9l8.9-15.5c1.9-3.4,0.8-7.7-2.6-9.6l-2.8-1.6c-3.4-1.9-7.7-0.8-9.6,2.6l-8.9,15.5l-8.9-15.5c-1.9-3.4-6.3-4.5-9.6-2.6l-2.8,1.6c-3.4,1.9-4.5,6.3-2.6,9.6l8.9,15.5H210.1z"/></g>
</svg>