<?xml version="1.0" encoding="utf-8"?>
<!-- Svg Vector Icons : http://www.onlinewebfonts.com/icon -->
<!DOCTYPE svg PUBLIC "-//W3C//DTD SVG 1.1//EN" "http://www.w3.org/Graphics/SVG/1.1/DTD/svg11.dtd">
<svg version="1.1" xmlns="http://www.w3.org/2000/svg" xmlns:xlink="http://www.w3.org/1999/xlink" x="0px" y="0px" viewBox="0 0 1000 1000" enable-background="new 0 0 1000 1000" xml:space="preserve">
<metadata> Svg Vector Icons : http://www.onlinewebfonts.com/icon </metadata>
<g><path d="M549.8,848.8l32.7,8.8c1.7,0.5,3.5-0.6,3.9-2.3c0.5-1.7-0.5-3.5-2.2-3.9l-26.6-7.1l27.1-15.7c1.5-0.9,2.1-2.8,1.2-4.4c-0.9-1.5-2.8-2-4.4-1.2l-27.1,15.7l7.1-26.6c0.5-1.7-0.5-3.4-2.3-3.9c-1.7-0.4-3.5,0.5-3.9,2.3l-8.8,32.7l-16.3,9.4l-36.9-21.3v-18.9l24-24c1.2-1.2,1.2-3.3,0-4.5c-1.3-1.2-3.3-1.2-4.5,0l-19.4,19.4v-31.3c0-1.8-1.4-3.2-3.2-3.2c-1.8,0-3.2,1.4-3.2,3.2v31.3l-19.4-19.4c-1.2-1.2-3.3-1.2-4.5,0c-1.2,1.2-1.2,3.3,0,4.5l24,24v18.9l-36.9,21.3l-16.3-9.4l-8.8-32.7c-0.5-1.7-2.2-2.7-3.9-2.3c-1.7,0.5-2.7,2.2-2.2,3.9l7.1,26.6l-27.1-15.7c-1.5-0.9-3.5-0.3-4.4,1.2c-0.9,1.5-0.4,3.5,1.2,4.4l27.1,15.6l-26.6,7.1c-1.7,0.4-2.7,2.2-2.3,3.9c0.4,1.7,2.2,2.7,3.9,2.3l32.7-8.8l16.3,9.4v42.6l-16.3,9.4l-32.7-8.8c-1.7-0.5-3.5,0.5-3.9,2.2c-0.5,1.7,0.6,3.4,2.3,3.9l26.6,7.1l-27.1,15.7c-1.5,0.9-2.1,2.8-1.2,4.4c0.9,1.5,2.8,2,4.4,1.2l27.1-15.7l-7.1,26.6c-0.5,1.7,0.5,3.5,2.2,3.9c1.7,0.5,3.5-0.6,3.9-2.3l8.8-32.7l16.3-9.4l36.9,21.3v18.9l-24,24c-1.2,1.2-1.2,3.3,0,4.5c1.3,1.2,3.3,1.2,4.5,0l19.4-19.5v31.4c0,1.7,1.4,3.2,3.2,3.2c1.8,0,3.2-1.4,3.2-3.2v-31.4l19.4,19.5c1.2,1.2,3.3,1.2,4.5,0c1.2-1.2,1.2-3.3,0-4.5l-24-24v-18.9l36.9-21.3l16.3,9.4l8.8,32.7c0.4,1.7,2.2,2.7,3.9,2.3c1.7-0.5,2.7-2.2,2.3-3.9l-7.1-26.6l27.1,15.7c1.5,0.9,3.5,0.4,4.4-1.2c0.9-1.5,0.3-3.5-1.2-4.4l-27.1-15.7l26.6-7.1c1.7-0.5,2.7-2.2,2.2-3.9c-0.4-1.7-2.2-2.7-3.9-2.2l-32.7,8.8l-16.3-9.4v-42.6L549.8,848.8z M452.8,861.5l31.1,18l-31.1,18V861.5z M487.1,921L456,903l31.1-18V921z M487.1,874L456,856l31.1-18V874z M493.5,838.1l31.1,18l-31.1,18V838.1z M493.5,921V885l31.1,18L493.5,921z M527.8,897.5l-31.1-18l31.1-18V897.5z"/><path d="M940.8,392.8c-9.6-67.5-63.6-110.1-126.9-117.6c0.5-6.5,0.8-13.1,0.8-19.7C814.7,119.9,704.8,10,569.3,10c-104.5,0-193.8,65.3-229.2,157.4c-39.6-17.8-84.9-23.1-129.1-12.4C122.1,176.4,57.7,258.5,57.7,350c0,118.9,99.5,200.7,213,200.7h524.4C880.8,550.7,953.5,482.1,940.8,392.8z M889.4,482.2c-22.9,26.4-57.2,41.5-94.2,41.5H270.7c-91.4,0-186-64.9-186-173.6c0-79.2,55.8-150.2,132.7-168.8c13-3.1,26.3-4.7,39.7-4.7c24.4,0,49.3,5.4,71.9,15.5l26,11.7l10.3-26.7C397.6,93.3,479.5,37,569.3,37c120.4,0,218.4,98,218.4,218.4c0,5.8-0.3,11.7-0.7,17.6l-2,25.9l25.8,3.1c55.6,6.6,96.1,43.7,103.3,94.5C918.6,428.2,909.8,458.6,889.4,482.2z"/><path d="M723.1,342.9c1.2-6.4,30-100.8-31.7-173.9c0,0,22.7,35.6,18,118.3c-2.1,36.1-17,83.2-17,83.2s35-11.3,64-4.8c68.6,15.4,78,42.3,78,42.3C820.8,362.7,779.4,341,723.1,342.9z"/><path d="M331.7,661l32.7,8.8c1.7,0.5,3.5-0.5,3.9-2.3c0.4-1.7-0.6-3.5-2.3-3.9l-26.5-7.1l27.1-15.7c1.5-0.9,2.1-2.9,1.2-4.4c-0.9-1.5-2.8-2.1-4.4-1.2L336.3,651l7.1-26.6c0.4-1.7-0.6-3.5-2.3-3.9c-1.7-0.4-3.5,0.6-3.9,2.3l-8.8,32.7l-16.3,9.4l-36.9-21.3v-18.9l24-24c1.2-1.2,1.2-3.3,0-4.5c-1.2-1.2-3.3-1.2-4.5,0l-19.4,19.4v-31.3c0-1.8-1.4-3.2-3.2-3.2c-1.8,0-3.2,1.4-3.2,3.2v31.3l-19.5-19.4c-1.2-1.2-3.3-1.2-4.5,0c-1.2,1.2-1.2,3.3,0,4.5l24,24v18.9L232,664.9l-16.3-9.4l-8.8-32.7c-0.4-1.7-2.2-2.7-3.9-2.3c-1.7,0.5-2.7,2.2-2.3,3.9l7.1,26.6l-27.1-15.7c-1.5-0.9-3.5-0.4-4.4,1.2c-0.9,1.5-0.4,3.5,1.2,4.4l27.1,15.6l-26.5,7.1c-1.7,0.5-2.7,2.2-2.3,3.9c0.4,1.7,2.2,2.7,3.9,2.3l32.7-8.8l16.4,9.4V713l-16.3,9.4l-32.7-8.8c-1.7-0.4-3.5,0.6-3.9,2.3c-0.5,1.7,0.5,3.4,2.3,3.9l26.5,7.1l-27.1,15.7c-1.5,0.9-2.1,2.8-1.2,4.4c0.9,1.5,2.8,2.1,4.4,1.2l27.1-15.7l-7.1,26.6c-0.4,1.7,0.6,3.4,2.3,3.9c1.7,0.5,3.5-0.6,3.9-2.3l8.8-32.7l16.3-9.4l36.9,21.3v18.9l-24,24c-1.2,1.2-1.2,3.3,0,4.5c1.2,1.2,3.3,1.2,4.5,0l19.4-19.5V799c0,1.8,1.4,3.2,3.2,3.2c1.8,0,3.2-1.4,3.2-3.2v-31.3l19.4,19.5c1.2,1.2,3.3,1.2,4.5,0c1.2-1.2,1.2-3.3,0-4.5l-24-24v-18.9l36.9-21.3l16.3,9.4l8.8,32.7c0.4,1.7,2.2,2.7,3.9,2.3c1.7-0.5,2.7-2.2,2.3-3.9l-7.1-26.6l27.1,15.7c1.5,0.9,3.5,0.4,4.4-1.2c0.9-1.5,0.3-3.5-1.2-4.4L339.5,727l26.5-7.1c1.7-0.4,2.7-2.2,2.3-3.9c-0.5-1.7-2.2-2.7-3.9-2.3l-32.7,8.8l-16.3-9.4v-42.6L331.7,661z M234.6,673.8l31.1,18l-31.1,18V673.8z M268.9,733.2l-31.1-17.9l31.1-18V733.2z M268.9,686.2l-31.1-18l31.1-18V686.2z M275.3,650.3l31.1,18l-31.1,18V650.3z M275.3,733.2v-35.9l31.1,18L275.3,733.2z M309.6,709.7l-31.1-18l31.1-18V709.7z"/><path d="M783.5,721.5l32.7,8.8c1.7,0.4,3.5-0.6,3.9-2.3c0.4-1.7-0.6-3.4-2.3-3.9l-26.6-7.1l27.1-15.7c1.5-0.9,2-2.8,1.1-4.4c-0.9-1.5-2.8-2-4.3-1.2l-27.1,15.7l7.1-26.6c0.5-1.7-0.5-3.5-2.3-3.9c-1.7-0.5-3.4,0.6-3.9,2.3l-8.8,32.8l-16.3,9.4l-36.8-21.3v-18.9l24-24c1.2-1.3,1.2-3.3,0-4.5c-1.3-1.2-3.3-1.2-4.5,0l-19.4,19.5v-31.3c0-1.8-1.4-3.2-3.2-3.2c-1.8,0-3.2,1.4-3.2,3.2v31.3l-19.5-19.5c-1.2-1.2-3.3-1.2-4.5,0c-1.2,1.2-1.2,3.3,0,4.5l24,24v18.9l-36.9,21.3l-16.3-9.4l-8.8-32.7c-0.4-1.7-2.2-2.7-3.9-2.3c-1.7,0.5-2.7,2.2-2.3,3.9l7.1,26.6l-27.1-15.7c-1.5-0.9-3.5-0.4-4.4,1.2c-0.9,1.5-0.3,3.5,1.2,4.4l27.1,15.6l-26.6,7.1c-1.7,0.5-2.7,2.2-2.3,3.9c0.5,1.7,2.2,2.7,3.9,2.3l32.7-8.8l16.4,9.4v42.6l-16.3,9.4l-32.8-8.8c-1.7-0.4-3.4,0.6-3.9,2.3c-0.5,1.7,0.6,3.4,2.3,3.9l26.6,7.1l-27.1,15.7c-1.5,0.9-2,2.8-1.2,4.3c0.9,1.5,2.9,2.1,4.4,1.2l27.1-15.7l-7.1,26.6c-0.5,1.7,0.6,3.5,2.3,3.9c1.7,0.5,3.5-0.5,3.9-2.2l8.8-32.7l16.3-9.4l36.9,21.3v18.9l-24,24c-1.3,1.3-1.3,3.3,0,4.5c1.2,1.2,3.3,1.2,4.5,0l19.5-19.5v31.3c0,1.8,1.4,3.2,3.2,3.2c1.8,0,3.2-1.4,3.2-3.2v-31.3l19.4,19.5c1.2,1.2,3.3,1.2,4.5,0c1.2-1.2,1.2-3.3,0-4.5l-24-24v-18.9l36.8-21.3l16.3,9.4l8.8,32.7c0.5,1.7,2.2,2.7,3.9,2.2c1.7-0.4,2.7-2.2,2.3-3.9l-7.1-26.6l27.1,15.7c1.5,0.9,3.5,0.4,4.3-1.2c0.9-1.5,0.4-3.5-1.1-4.4l-27.1-15.7l26.6-7.1c1.7-0.5,2.7-2.2,2.3-3.9c-0.5-1.7-2.2-2.7-3.9-2.3l-32.7,8.8l-16.3-9.4v-42.6L783.5,721.5z M686.4,734.2l31.1,18l-31.1,18V734.2z M720.7,793.7l-31.1-18l31.1-18V793.7z M720.7,746.7l-31.1-18l31.1-18V746.7z M727.1,710.7l31.1,18l-31.1,18V710.7z M727.1,793.7v-35.9l31.1,18L727.1,793.7z M761.4,770.2l-31.1-18l31.1-18V770.2z"/></g>
</svg>