<?xml version="1.0" encoding="utf-8"?>
<!-- Svg Vector Icons : http://www.onlinewebfonts.com/icon -->
<!DOCTYPE svg PUBLIC "-//W3C//DTD SVG 1.1//EN" "http://www.w3.org/Graphics/SVG/1.1/DTD/svg11.dtd">
<svg version="1.1" xmlns="http://www.w3.org/2000/svg" xmlns:xlink="http://www.w3.org/1999/xlink" x="0px" y="0px" viewBox="0 0 1000 1000" enable-background="new 0 0 1000 1000" xml:space="preserve">
<metadata> Svg Vector Icons : http://www.onlinewebfonts.com/icon </metadata>
<g><g transform="translate(0.000000,511.000000) scale(0.100000,-0.100000)"><path d="M4890.4,3047.5c-190.5-22.6-483.7-140.3-576.5-233.1c-67.7-67.7-65.2-210.5,0-275.7c70.2-70.2,170.4-62.7,350.9,32.6c137.8,70.2,182.9,80.2,348.4,80.2c355.9,0,571.4-177.9,596.5-493.7c10-130.3,5-180.4-37.6-263.2c-72.7-137.8-165.4-243.1-275.7-313.3l-92.7-57.6l-1887.2-12.5l-1889.8-12.5l-47.6-60.1c-67.7-82.7-62.7-205.5,10-275.7l60.2-52.6l1902.3,5l1902.3,7.5l147.9,75.2c228.1,115.3,401,285.7,508.8,508.8c87.7,177.9,95.2,205.5,92.7,403.5c-5,353.4-130.3,596.5-403.5,777C5419.2,3007.4,5118.5,3075.1,4890.4,3047.5z"/><path d="M6780.2,2827c-193-42.6-398.5-137.8-503.8-235.6c-102.7-92.7-110.3-203-20-290.7c77.7-80.2,162.9-80.2,283.2,0c213,140.4,461.2,183,729.3,127.8c338.3-70.2,581.4-273.2,666.7-551.4c135.4-446.1-132.8-1005-556.4-1157.9c-77.7-27.6-716.8-32.6-3611.6-35.1H251.2l-60.1-62.7c-80.2-77.7-80.2-165.4-2.5-255.6l60.1-70.2l3456.2-7.5c2193-2.5,3513.8,2.5,3616.6,17.5C7903,395.9,8374.2,994.9,8374.2,1644c0,335.9-117.8,606.5-365.9,844.6C7684.9,2799.4,7228.8,2924.7,6780.2,2827z"/><path d="M168.5-145.5C83.3-213.2,75.8-361,156-433.7c52.6-45.1,170.4-47.6,4408.6-60.1l4355.9-12.5l145.4-100.3c493.8-340.9,584-1070.2,185.5-1501.3c-315.8-340.8-731.8-428.6-1110.3-230.6c-200.5,105.3-265.7,110.3-338.3,32.6c-75.2-80.2-72.7-203,7.5-283.2c95.2-95.2,355.9-205.5,551.4-233.1c654.1-92.7,1345.9,391,1503.8,1052.7c162.9,691.7-268.2,1473.7-902.3,1639.1C8832.8-97.9,8309-92.9,4524.5-92.9H236.2L168.5-145.5z"/><path d="M2015.7-925c-117.8-57.6-132.8-265.7-22.6-328.3c40.1-22.6,636.6-32.6,2501.3-42.6l2446.1-12.5l67.7-62.7c137.9-127.8,223.1-411,177.9-586.5c-22.5-90.2-160.4-240.6-258.1-280.7c-157.9-67.6-416-20-561.4,100.3c-142.9,120.3-348.4,52.7-348.4-117.8c0-225.6,543.9-461.2,904.8-393.5c330.8,62.7,614,358.4,664.2,694.3c40.1,278.2-105.2,676.7-318.3,869.7c-223.1,200.5-72.7,190.5-2789.5,188C2847.8-897.4,2053.3-907.4,2015.7-925z"/></g></g>
</svg>